<svg width="24" height="24" viewBox="0 0 24 24" fill="none" xmlns="http://www.w3.org/2000/svg">
    <path d="M22.2534 19.9987L17.0034 9.49875C16.9568 9.40515 16.885 9.3264 16.796 9.27136C16.7071 9.21632 16.6046 9.18716 16.5 9.18716C16.3954 9.18716 16.2929 9.21632 16.204 9.27136C16.115 9.3264 16.0432 9.40515 15.9966 9.49875L13.9059 13.68C12.1587 13.6075 10.4771 12.9939 9.09375 11.9241C10.7019 10.2794 11.6615 8.10886 11.7956 5.8125H14.25C14.3992 5.8125 14.5423 5.75324 14.6477 5.64775C14.7532 5.54226 14.8125 5.39918 14.8125 5.25C14.8125 5.10082 14.7532 4.95774 14.6477 4.85225C14.5423 4.74676 14.3992 4.6875 14.25 4.6875H8.8125V3C8.8125 2.85082 8.75324 2.70774 8.64775 2.60225C8.54226 2.49676 8.39918 2.4375 8.25 2.4375C8.10082 2.4375 7.95774 2.49676 7.85225 2.60225C7.74676 2.70774 7.6875 2.85082 7.6875 3V4.6875H2.25C2.10082 4.6875 1.95774 4.74676 1.85225 4.85225C1.74676 4.95774 1.6875 5.10082 1.6875 5.25C1.6875 5.39918 1.74676 5.54226 1.85225 5.64775C1.95774 5.75324 2.10082 5.8125 2.25 5.8125H10.6678C10.5343 7.83375 9.67577 9.7389 8.25 11.1778C7.37548 10.2965 6.70669 9.23263 6.29156 8.0625C6.26827 7.9912 6.23094 7.92528 6.18179 7.86861C6.13264 7.81195 6.07265 7.76569 6.00535 7.73255C5.93806 7.69942 5.86481 7.68008 5.78993 7.67567C5.71505 7.67126 5.64004 7.68188 5.56932 7.70689C5.49861 7.7319 5.4336 7.7708 5.37814 7.82131C5.32268 7.87181 5.27788 7.9329 5.24638 8.00098C5.21488 8.06905 5.19732 8.14274 5.19472 8.21771C5.19212 8.29268 5.20454 8.36741 5.23125 8.4375C5.69397 9.74435 6.43623 10.9345 7.40625 11.925C5.93124 13.0694 4.1169 13.6896 2.25 13.6875C2.10082 13.6875 1.95774 13.7468 1.85225 13.8523C1.74676 13.9577 1.6875 14.1008 1.6875 14.25C1.6875 14.3992 1.74676 14.5423 1.85225 14.6477C1.95774 14.7532 2.10082 14.8125 2.25 14.8125C4.43415 14.8145 6.55258 14.0654 8.25 12.6909C9.71309 13.8706 11.491 14.5934 13.3622 14.7694L10.7475 19.9987C10.7145 20.0649 10.6949 20.1368 10.6897 20.2105C10.6845 20.2842 10.6939 20.3582 10.7173 20.4283C10.7646 20.5699 10.8662 20.6868 10.9997 20.7534C11.1332 20.8201 11.2877 20.8309 11.4293 20.7836C11.5708 20.7363 11.6877 20.6348 11.7544 20.5012L13.0978 17.8125H19.9022L21.2466 20.5012C21.2933 20.5948 21.3651 20.6735 21.454 20.7284C21.543 20.7834 21.6454 20.8125 21.75 20.8125C21.8373 20.8127 21.9234 20.7921 22.0012 20.7525C22.1346 20.6859 22.236 20.5691 22.2833 20.4278C22.3305 20.2865 22.3198 20.1322 22.2534 19.9987ZM13.6603 16.6875L16.5 11.0081L19.3397 16.6875H13.6603Z" fill="black"/>
</svg>
