<svg viewBox="0 0 48 48" xml:space="preserve" xmlns="http://www.w3.org/2000/svg"><g fill="#4b5563" class="fill-546e7a"><path d="m30.633 26.114-.773.643 14.807 13.319a.496.496 0 0 0 .706-.038.499.499 0 0 0-.038-.706L30.633 26.114zM17.514 26.236 2.954 39.333a.499.499 0 1 0 .668.744L18.288 26.88l-.774-.644zM40.625 8H7.375a.5.5 0 0 0-.5.5h35.981a5.321 5.321 0 0 0-2.231-.5z"></path><path d="M45.5 11.143v2.617l-.5.415V38.5c0 .827-.673 1.5-1.5 1.5h-39c-.827 0-1.5-.673-1.5-1.5V16a.5.5 0 0 0-1 0v22.5C2 39.878 3.121 41 4.5 41h39c1.379 0 2.5-1.122 2.5-2.5V13.375c0-.798-.187-1.55-.5-2.232z"></path><path d="M23.994 31.005a4.251 4.251 0 0 1-2.595-.89L2.181 14.145A.502.502 0 0 1 2 13.76V10.5C2 9.122 3.121 8 4.5 8h39c1.379 0 2.5 1.122 2.5 2.5v3.26a.5.5 0 0 1-.181.385l-19.218 15.97a4.314 4.314 0 0 1-2.607.89zm-1.965-1.667a3.25 3.25 0 0 0 3.95-.006L45 13.525V10.5c0-.827-.673-1.5-1.5-1.5h-39C3.673 9 3 9.673 3 10.5v3.025l19.029 15.813z"></path></g></svg>