<svg xmlns="http://www.w3.org/2000/svg" version="1.1" xmlns:xlink="http://www.w3.org/1999/xlink" xmlns:svgjs="http://svgjs.dev/svgjs" width="128" height="128" viewBox="0 0 128 128"><g transform="matrix(0.6204819277108434,0,0,0.6204819277108434,24.36510040052618,12.760752631578946)"><svg viewBox="0 0 73 95" data-background-color="#ffffff" preserveAspectRatio="xMidYMid meet" height="166" width="128" xmlns="http://www.w3.org/2000/svg" xmlns:xlink="http://www.w3.org/1999/xlink"><g id="tight-bounds" transform="matrix(1,0,0,1,-0.06980329593267243,-0.24049999999999727)"><svg viewBox="0 0 73.13960659186534 95.481" height="95.481" width="73.13960659186534"><g><svg viewBox="0 0 73.13960659186534 95.481" height="95.481" width="73.13960659186534"><g><svg viewBox="0 0 73.13960659186534 95.481" height="95.481" width="73.13960659186534"><g id="textblocktransform"><svg viewBox="0 0 73.13960659186534 95.481" height="95.481" width="73.13960659186534" id="textblock"><g><svg viewBox="0 0 73.13960659186534 95.481" height="95.481" width="73.13960659186534"><g><svg viewBox="0 0 73.13960659186534 95.481" height="95.481" width="73.13960659186534"><g><svg xmlns="http://www.w3.org/2000/svg" xmlns:xlink="http://www.w3.org/1999/xlink" version="1.1" x="0" y="0" viewBox="16 5 68.817 89.838" enable-background="new 0 0 100 100" xml:space="preserve" height="95.481" width="73.13960659186534" class="icon-icon-0" data-fill-palette-color="accent" id="icon-0"><path d="M81 9.811V7.782H56.554L23.03 5 22.799 7.782H19V53.562L16 89.71 19 89.959V92.782H53.019L77.788 94.838 77.959 92.782H81V56.125L84.817 10.128zM24.858 7.159L32.371 7.783H24.806zM18.159 87.882L19 77.744V87.951zM79 11.652V90.783H21V9.782H79zM81 11.818L82.659 11.956 81 31.945z" fill="#164863" data-fill-palette-color="accent"></path><path d="M48 23.782A1 1 0 0 1 47 24.782H26A1 1 0 0 1 26 22.782H47A1 1 0 0 1 48 23.782" fill="#164863" data-fill-palette-color="accent"></path><path d="M48 29.782A1 1 0 0 1 47 30.782H26A1 1 0 0 1 26 28.782H47A1 1 0 0 1 48 29.782" fill="#164863" data-fill-palette-color="accent"></path><path d="M48 35.782A1 1 0 0 1 47 36.782H26A1 1 0 0 1 26 34.782H47A1 1 0 0 1 48 35.782" fill="#164863" data-fill-palette-color="accent"></path><path d="M75 45.782A1 1 0 0 1 74 46.782H26A1 1 0 1 1 26 44.782H74A1 1 0 0 1 75 45.782" fill="#164863" data-fill-palette-color="accent"></path><path d="M75 51.782A1 1 0 0 1 74 52.782H26A1 1 0 1 1 26 50.782H74A1 1 0 0 1 75 51.782" fill="#164863" data-fill-palette-color="accent"></path><path d="M75 57.782A1 1 0 0 1 74 58.782H26A1 1 0 1 1 26 56.782H74A1 1 0 0 1 75 57.782" fill="#164863" data-fill-palette-color="accent"></path><path d="M75 63.782A1 1 0 0 1 74 64.782H26A1 1 0 1 1 26 62.782H74A1 1 0 0 1 75 63.782" fill="#164863" data-fill-palette-color="accent"></path><path d="M75 70.782A1 1 0 0 1 74 71.782H26A1 1 0 1 1 26 69.782H74A1 1 0 0 1 75 70.782" fill="#164863" data-fill-palette-color="accent"></path><path d="M75 77.782A1 1 0 0 1 74 78.782H26A1 1 0 1 1 26 76.782H74A1 1 0 0 1 75 77.782" fill="#164863" data-fill-palette-color="accent"></path><path d="M55 84.782A1 1 0 0 1 54 85.782H26A1 1 0 1 1 26 83.782H54A1 1 0 0 1 55 84.782" fill="#164863" data-fill-palette-color="accent"></path><circle cx="62.996" cy="20.078" r="5.8" fill="#164863" data-fill-palette-color="accent"></circle><path d="M71.99 31.643C71.642 27.261 67.734 26.503 62.995 26.503S54.347 27.26 54 31.643V36.783H57.213V32.928S57.213 31.643 57.856 31.643V36.783H68.135V31.643C68.779 31.643 68.779 32.928 68.779 32.928V36.783H72C72.001 34.656 71.999 31.681 71.99 31.643M62.995 35.498L62.005 34.224 62.995 27.788 63.984 34.22z" fill="#164863" data-fill-palette-color="accent"></path></svg></g></svg></g></svg></g></svg></g></svg></g></svg></g><defs></defs></svg><rect width="73.13960659186534" height="95.481" fill="none" stroke="none" visibility="hidden"></rect></g></svg></g></svg>